<?xml version="1.0" encoding="UTF-8" standalone="no"?>
<svg viewBox="0 0 46 46" version="1.1" xmlns="http://www.w3.org/2000/svg" xmlns:xlink="http://www.w3.org/1999/xlink">
    <g stroke="none" stroke-width="1" fill="none" fill-rule="evenodd">
        <g transform="translate(-1, -1)">
            <path d="M31.64,23.205 C31.64,22.566 31.582,21.953 31.476,21.364 L24,21.364 L24,24.845 L28.306,24.845 C28.122,25.956 27.557,26.91 26.712,27.577 L26.712,29.718 L29.557,29.718 C31.191,28.208 32,26.229 32,24 C31.9998,23.7347 31.9801,23.4697 31.9409,23.2072" fill="#4285F4"/>
            <path d="M24,32 C26.43,32 28.467,31.239 29.957,29.918 L27.112,27.777 C26.1,28.447 25.034,28.8 24,28.8 C21.654,28.8 19.67,27.193 18.963,25.043 L16.038,25.043 L16.038,27.251 C17.527,30.125 20.519,32 24,32" fill="#34A853"/>
            <path d="M18.963,25.043 C18.683,24.187 18.526,23.274 18.526,22.333 C18.526,21.392 18.683,20.479 18.963,19.623 L18.963,17.415 L16.038,17.415 C15.372,18.927 15,20.581 15,22.333 C15,24.085 15.372,25.739 16.038,27.251 L18.963,25.043" fill="#FBBC05"/>
            <path d="M24,15.867 C25.321,15.867 26.501,16.297 27.44,17.184 L29.995,14.629 C28.466,13.197 26.428,12.333 24,12.333 C20.519,12.333 17.527,14.208 16.038,17.082 L18.963,19.29 C19.67,17.14 21.654,15.533 24,15.533" fill="#EA4335"/>
        </g>
    </g>
</svg>